<?xml version="1.0" encoding="iso-8859-1"?>
<!-- Generator: Adobe Illustrator 19.0.0, SVG Export Plug-In . SVG Version: 6.00 Build 0)  -->
<svg version="1.1" id="Layer_1" xmlns="http://www.w3.org/2000/svg" xmlns:xlink="http://www.w3.org/1999/xlink" x="0px" y="0px"
	 viewBox="0 0 512 512" style="enable-background:new 0 0 512 512;" xml:space="preserve">
<path style="fill:#F28544;" d="M486.817,293.711c-1.001-1.427-1.557-3.039-1.686-4.671c-8.933-20.294-8.933-45.778,0-66.082
	c0.13-1.622,0.686-3.234,1.686-4.661c5.634-8.071,7.497-17.144,5.254-25.549c-2.252-8.396-8.405-15.318-17.329-19.488v-0.009
	c-1.585-0.732-2.863-1.853-3.79-3.197c-17.885-13.103-30.627-35.186-33.036-57.232c-0.704-1.473-1.029-3.141-0.88-4.884
	c0.843-9.814-2.076-18.598-8.22-24.752c-6.163-6.144-14.929-9.026-24.742-8.22h-0.009c-1.779,0.176-3.419-0.176-4.884-0.88
	c-22.055-2.409-44.129-15.151-57.241-33.045c-1.334-0.917-2.456-2.206-3.188-3.781h-0.009c-4.17-8.924-11.092-15.077-19.488-17.329
	c-8.396-2.243-17.431-0.38-25.493,5.217l-0.056,0.037c-1.427,1.01-3.039,1.557-4.671,1.686c-20.294,8.933-45.769,8.933-66.082,0
	c-1.622-0.13-3.234-0.686-4.661-1.686c-8.081-5.634-17.125-7.487-25.549-5.254c-8.396,2.252-15.318,8.405-19.488,17.329h-0.009
	c-0.732,1.585-1.853,2.863-3.197,3.781c-13.103,17.894-35.186,30.636-57.232,33.045c-1.464,0.704-3.123,1.056-4.884,0.88
	c-9.786-0.806-18.589,2.076-24.752,8.22c-6.144,6.153-9.063,14.938-8.22,24.742v0.009c0.148,1.742-0.176,3.41-0.88,4.884
	c-2.409,22.055-15.151,44.129-33.045,57.241c-0.917,1.334-2.206,2.456-3.781,3.188v0.009c-8.924,4.17-15.077,11.092-17.329,19.488
	c-2.243,8.387-0.389,17.431,5.217,25.493l0.037,0.056c1.001,1.427,1.557,3.039,1.686,4.671c8.933,20.294,8.933,45.778,0,66.082
	c-0.13,1.622-0.686,3.234-1.686,4.661c-5.634,8.081-7.506,17.153-5.254,25.548c2.252,8.405,8.405,15.327,17.32,19.488l0.009,0.009
	c1.585,0.732,2.863,1.853,3.79,3.197c17.876,13.103,30.617,35.177,33.036,57.223c0.704,1.473,1.028,3.151,0.88,4.893
	c-0.843,9.814,2.076,18.598,8.22,24.752c6.162,6.144,14.929,9.044,24.742,8.22h0.009c1.761-0.167,3.419,0.176,4.884,0.88
	c22.055,2.409,44.129,15.151,57.241,33.045c1.334,0.917,2.456,2.206,3.188,3.781h0.009c4.17,8.924,11.092,15.077,19.488,17.329
	c8.396,2.243,17.431,0.389,25.493-5.217l0.056-0.037c1.427-1.01,3.039-1.557,4.671-1.686c20.294-8.933,45.769-8.933,66.082,0
	c1.622,0.13,3.234,0.686,4.661,1.686c8.081,5.634,17.181,7.497,25.549,5.254c8.405-2.252,15.327-8.405,19.488-17.32l0.009-0.009
	c0.732-1.585,1.853-2.863,3.197-3.781c13.103-17.894,35.186-30.636,57.232-33.045c1.464-0.704,3.104-1.047,4.884-0.88
	c9.776,0.825,18.589-2.076,24.752-8.22c6.144-6.153,9.063-14.938,8.22-24.742v-0.009c-0.149-1.742,0.176-3.41,0.88-4.884
	c2.409-22.055,15.151-44.129,33.045-57.241c0.917-1.334,2.206-2.456,3.781-3.188v-0.009c8.924-4.17,15.077-11.092,17.329-19.488
	c2.243-8.387,0.389-17.431-5.217-25.493L486.817,293.711z M256,436.299c-99.414,0-180.295-80.881-180.295-180.295
	S156.586,75.709,256,75.709s180.295,80.881,180.295,180.295S355.414,436.299,256,436.299z"/>
<path style="fill:#DBCF56;" d="M256,94.688c-88.952,0-161.317,72.364-161.317,161.317S167.048,417.321,256,417.321
	s161.317-72.365,161.317-161.317S344.952,94.688,256,94.688z"/>
<g>
	<path style="fill:#314E55;" d="M256,75.709c-99.414,0-180.295,80.881-180.295,180.295S156.586,436.299,256,436.299
		s180.295-80.881,180.295-180.295S355.414,75.709,256,75.709z M256,417.321c-88.952,0-161.317-72.365-161.317-161.317
		S167.048,94.688,256,94.688s161.317,72.364,161.317,161.317S344.952,417.321,256,417.321z"/>
	<path style="fill:#314E55;" d="M507.028,289.523c-12.686-18.172-12.686-48.864,0-67.027v-0.009
		c1.131-1.603,1.686-3.438,1.714-5.254c3.651-9.563,4.263-19.664,1.659-29.394c-2.613-9.73-8.201-18.182-16.143-24.631
		c-0.936-1.557-2.335-2.863-4.105-3.688v-0.009c-20.063-9.378-35.399-35.927-33.509-57.992v-0.046
		c0.176-1.965-0.269-3.836-1.158-5.43c-1.612-10.101-6.135-19.154-13.251-26.271c-7.126-7.117-16.171-11.639-26.271-13.261
		c-1.594-0.88-3.373-1.362-5.43-1.149h-0.056c-22.027,1.946-48.604-13.446-57.982-33.509h-0.009
		c-0.825-1.77-2.131-3.169-3.688-4.105c-6.45-7.942-14.901-13.529-24.631-16.143c-9.721-2.613-19.831-2.011-29.394,1.659
		c-1.816,0.037-3.651,0.593-5.254,1.714c-18.182,12.696-48.882,12.677-67.027,0h-0.01c-1.603-1.131-3.438-1.686-5.254-1.714
		c-9.573-3.67-19.674-4.272-29.394-1.659c-9.73,2.613-18.182,8.201-24.631,16.143c-1.557,0.936-2.863,2.335-3.688,4.105h-0.009
		c-9.378,20.072-36.039,35.52-58.029,33.509h-0.009c-2.011-0.185-3.827,0.26-5.43,1.158c-10.101,1.612-19.155,6.134-26.272,13.251
		c-7.117,7.126-11.639,16.18-13.261,26.271c-0.88,1.603-1.316,3.466-1.149,5.43v0.065c1.881,22.064-13.446,48.604-33.509,57.973
		v0.009c-1.77,0.825-3.169,2.131-4.105,3.688c-7.942,6.45-13.529,14.901-16.143,24.631c-2.604,9.73-1.992,19.84,1.659,29.394
		c0.037,1.816,0.593,3.651,1.714,5.254c12.686,18.172,12.686,48.864,0,67.027v0.009c-1.131,1.603-1.686,3.438-1.714,5.254
		c-3.651,9.563-4.263,19.673-1.659,29.404c2.613,9.73,8.201,18.182,16.143,24.631c0.945,1.547,2.335,2.854,4.105,3.679v0.009
		c20.063,9.378,35.399,35.937,33.509,58.001v0.037c0,0.009,0,0.009,0,0.009c-0.167,1.955,0.269,3.827,1.158,5.421
		c1.612,10.101,6.135,19.154,13.251,26.271c7.126,7.117,16.171,11.639,26.271,13.261c1.594,0.88,3.373,1.362,5.43,1.149h0.056
		c21.981-1.955,48.604,13.446,57.982,33.509h0.009c0.825,1.77,2.131,3.169,3.688,4.105c6.45,7.942,14.901,13.529,24.631,16.143
		c9.721,2.595,19.822,1.992,29.394-1.659c1.816-0.037,3.651-0.593,5.254-1.714c18.182-12.696,48.882-12.677,67.027,0h0.009
		c1.603,1.131,3.438,1.686,5.254,1.714c5.643,2.159,11.482,3.253,17.32,3.253c4.05,0,8.099-0.528,12.084-1.594
		c9.73-2.613,18.182-8.201,24.631-16.152c1.547-0.936,2.854-2.326,3.679-4.096h0.009c9.378-20.063,35.779-35.473,58.001-33.509
		h0.037c2.002,0.213,3.827-0.26,5.43-1.158c10.101-1.612,19.154-6.135,26.271-13.251c7.117-7.126,11.639-16.18,13.261-26.271
		c0.88-1.603,1.316-3.466,1.149-5.43v-0.065c-1.881-22.064,13.446-48.604,33.509-57.973v-0.009c1.77-0.825,3.169-2.131,4.105-3.688
		c7.942-6.45,13.529-14.901,16.143-24.631c2.604-9.73,1.992-19.84-1.659-29.394C508.706,292.961,508.15,291.126,507.028,289.523z
		 M492.072,319.26c-2.252,8.396-8.405,15.318-17.329,19.488v0.009c-1.575,0.732-2.863,1.853-3.781,3.188
		c-17.894,13.112-30.636,35.186-33.045,57.241c-0.704,1.473-1.029,3.141-0.88,4.884v0.009c0.843,9.804-2.076,18.589-8.22,24.742
		c-6.163,6.144-14.975,9.044-24.752,8.22c-1.779-0.167-3.419,0.176-4.884,0.88c-22.046,2.409-44.129,15.151-57.232,33.045
		c-1.344,0.917-2.465,2.196-3.197,3.781l-0.009,0.009c-4.161,8.915-11.083,15.068-19.488,17.32
		c-8.368,2.243-17.468,0.38-25.549-5.254c-1.427-1.001-3.039-1.557-4.661-1.686c-20.313-8.933-45.787-8.933-66.082,0
		c-1.631,0.13-3.243,0.677-4.671,1.686l-0.056,0.037c-8.062,5.606-17.097,7.46-25.493,5.217
		c-8.396-2.252-15.318-8.405-19.488-17.329h-0.009c-0.732-1.575-1.853-2.863-3.188-3.781
		c-13.112-17.894-35.186-30.636-57.241-33.045c-1.464-0.704-3.123-1.047-4.884-0.88h-0.009c-9.814,0.825-18.58-2.076-24.742-8.22
		c-6.144-6.153-9.063-14.938-8.22-24.752c0.148-1.742-0.176-3.419-0.88-4.893c-2.419-22.046-15.16-44.119-33.036-57.223
		c-0.927-1.344-2.206-2.465-3.79-3.197l-0.009-0.009c-8.915-4.161-15.068-11.083-17.32-19.488
		c-2.252-8.396-0.38-17.468,5.254-25.548c1.001-1.427,1.557-3.039,1.686-4.661c8.933-20.304,8.933-45.787,0-66.082
		c-0.13-1.631-0.686-3.243-1.686-4.671l-0.037-0.056c-5.606-8.062-7.46-17.106-5.217-25.493c2.252-8.396,8.405-15.318,17.329-19.488
		v-0.009c1.575-0.732,2.863-1.853,3.781-3.188c17.894-13.112,30.636-35.186,33.045-57.241c0.704-1.473,1.028-3.141,0.88-4.884
		v-0.009c-0.843-9.804,2.076-18.589,8.22-24.742c6.162-6.144,14.966-9.026,24.752-8.22c1.761,0.176,3.419-0.176,4.884-0.88
		c22.046-2.409,44.129-15.151,57.232-33.045c1.344-0.917,2.465-2.196,3.197-3.781h0.009c4.17-8.924,11.092-15.077,19.488-17.329
		c8.424-2.233,17.468-0.38,25.549,5.254c1.427,1.001,3.039,1.557,4.661,1.686c20.313,8.933,45.787,8.933,66.082,0
		c1.631-0.13,3.243-0.677,4.671-1.686l0.056-0.037c8.062-5.597,17.097-7.46,25.493-5.217c8.396,2.252,15.318,8.405,19.488,17.329
		h0.009c0.732,1.575,1.853,2.863,3.188,3.781c13.112,17.894,35.186,30.636,57.241,33.045c1.464,0.704,3.104,1.056,4.884,0.88h0.009
		c9.814-0.806,18.58,2.076,24.742,8.22c6.144,6.153,9.063,14.938,8.22,24.752c-0.149,1.742,0.176,3.41,0.88,4.884
		c2.409,22.046,15.151,44.129,33.036,57.232c0.927,1.344,2.206,2.465,3.79,3.197v0.009c8.924,4.17,15.077,11.092,17.329,19.488
		c2.243,8.405,0.38,17.477-5.254,25.549c-1.001,1.427-1.557,3.039-1.686,4.661c-8.933,20.304-8.933,45.787,0,66.082
		c0.13,1.631,0.686,3.243,1.686,4.671l0.037,0.056C492.461,301.829,494.314,310.873,492.072,319.26z"/>
</g>
<g>
</g>
<g>
</g>
<g>
</g>
<g>
</g>
<g>
</g>
<g>
</g>
<g>
</g>
<g>
</g>
<g>
</g>
<g>
</g>
<g>
</g>
<g>
</g>
<g>
</g>
<g>
</g>
<g>
</g>
</svg>
