<?xml version="1.0" encoding="iso-8859-1"?>
<!-- Generator: Adobe Illustrator 19.0.0, SVG Export Plug-In . SVG Version: 6.00 Build 0)  -->
<svg version="1.1" id="Layer_1" xmlns="http://www.w3.org/2000/svg" xmlns:xlink="http://www.w3.org/1999/xlink" x="0px" y="0px"
	 viewBox="0 0 512.005 512.005" style="enable-background:new 0 0 512.005 512.005;" xml:space="preserve">
<path style="fill:#77C69E;" d="M503.407,427.87c-22.494,0-22.494-21.783-44.989-21.783c-22.495,0-22.494,21.783-44.989,21.783
	c-22.492,0-22.492-21.783-44.983-21.783c-22.492,0-22.492,21.783-44.984,21.783c-22.491,0-22.491-21.783-44.983-21.783
	c-22.491,0-22.491,21.783-44.981,21.783c-22.488,0-22.488-21.783-44.976-21.783c-22.491,0-22.491,21.783-44.981,21.783
	s-22.491-21.783-44.983-21.783c-22.491,0-22.491,21.783-44.981,21.783c-22.49,0-22.49-21.783-44.979-21.783v-52.962
	c22.49,0,22.49,21.783,44.979,21.783c22.491,0,22.491-21.783,44.981-21.783s22.491,21.783,44.983,21.783
	c22.491,0,22.491-21.783,44.981-21.783c22.488,0,22.488,21.783,44.976,21.783c22.491,0,22.491-21.783,44.981-21.783
	s22.491,21.783,44.983,21.783c22.492,0,22.492-21.783,44.984-21.783s22.492,21.783,44.983,21.783
	c22.494,0,22.494-21.783,44.989-21.783c22.495,0,22.494,21.783,44.989,21.783"/>
<path style="fill:#E6E6E6;" d="M188.334,327.099V168.096c0-22.781-18.468-41.248-41.248-41.248l0,0
	c-22.781,0-41.248,18.468-41.248,41.248v159.002c-24.158,14.178-40.389,40.406-40.389,70.442c0,45.087,36.55,54.137,81.637,54.137
	s81.638-9.05,81.638-54.137C228.723,367.505,212.492,341.276,188.334,327.099z"/>
<path style="fill:#F24141;" d="M147.086,451.677c-29.852,0-54.137-24.285-54.137-54.137c0-19.116,10.273-37.02,26.808-46.724
	l13.582-7.971v-174.75c0-7.581,6.167-13.748,13.748-13.748c7.581,0,13.748,6.167,13.748,13.748v174.751l13.582,7.97
	c16.537,9.704,26.808,27.608,26.808,46.724C201.223,427.392,176.937,451.677,147.086,451.677z"/>
<path style="fill:#89E5B9;" d="M503.407,480.832c-22.494,0-22.494-21.783-44.989-21.783c-22.495,0-22.494,21.783-44.989,21.783
	c-22.492,0-22.492-21.783-44.983-21.783c-22.492,0-22.492,21.783-44.984,21.783c-22.491,0-22.491-21.783-44.983-21.783
	c-22.491,0-22.491,21.783-44.981,21.783c-22.488,0-22.488-21.783-44.976-21.783c-22.491,0-22.491,21.783-44.981,21.783
	s-22.491-21.783-44.983-21.783c-22.491,0-22.491,21.783-44.981,21.783c-22.49,0-22.49-21.783-44.979-21.783v-52.961
	c22.49,0,22.49,21.783,44.979,21.783c22.491,0,22.491-21.783,44.981-21.783s22.491,21.783,44.983,21.783
	c22.491,0,22.491-21.783,44.981-21.783c22.488,0,22.488,21.783,44.976,21.783c22.491,0,22.491-21.783,44.981-21.783
	s22.491,21.783,44.983,21.783c22.492,0,22.492-21.783,44.984-21.783s22.492,21.783,44.983,21.783
	c22.494,0,22.494-21.783,44.989-21.783c22.495,0,22.494,21.783,44.989,21.783"/>
<circle style="fill:#FFDE55;" cx="278.777" cy="86.169" r="27.499"/>
<path d="M368.449,361.72c7.767,0,11.245,3.37,16.513,8.471c6.125,5.931,13.744,13.311,28.47,13.311
	c14.728,0,22.349-7.38,28.474-13.311c5.267-5.101,8.747-8.471,16.515-8.471c7.769,0,11.249,3.37,16.517,8.471
	c6.125,5.93,13.746,13.311,28.472,13.311c4.747,0,8.594-3.848,8.594-8.594c0-4.746-3.847-8.594-8.594-8.594
	c-7.768,0-11.248-3.37-16.515-8.471c-6.126-5.931-13.747-13.311-28.474-13.311c-14.726,0-22.347,7.38-28.472,13.311
	c-5.269,5.101-8.749,8.471-16.517,8.471c-7.765,0-11.244-3.37-16.512-8.47c-6.125-5.931-13.746-13.312-28.471-13.312
	c-4.747,0-8.594,3.848-8.594,8.594S363.702,361.72,368.449,361.72z"/>
<path d="M160.83,318.193c4.747,0,8.594-3.848,8.594-8.594V168.101c0-12.32-10.024-22.344-22.344-22.344
	c-12.313,0-22.331,10.024-22.331,22.344v11.449c0,4.746,3.847,8.594,8.594,8.594s8.594-3.848,8.594-8.594v-11.449
	c0-2.843,2.308-5.156,5.144-5.156c2.843,0,5.156,2.313,5.156,5.156v141.498C152.236,314.345,156.084,318.193,160.83,318.193z"/>
<path d="M202.814,453.302c-4.369-1.916-9.043-2.846-14.288-2.846c-14.725,0-22.346,7.38-28.47,13.311
	c-5.267,5.101-8.746,8.471-16.512,8.471c-7.767,0-11.245-3.37-16.513-8.471c-6.125-5.931-13.744-13.311-28.47-13.311
	s-22.346,7.38-28.47,13.311c-5.267,5.101-8.746,8.471-16.512,8.471c-7.764,0-11.244-3.37-16.511-8.47
	c-6.123-5.931-13.743-13.312-28.469-13.312c-4.747,0-8.594,3.848-8.594,8.594s3.847,8.594,8.594,8.594
	c7.764,0,11.244,3.37,16.511,8.47c6.123,5.931,13.743,13.312,28.469,13.312s22.346-7.38,28.47-13.311
	c5.267-5.101,8.746-8.471,16.512-8.471s11.244,3.37,16.512,8.47c6.125,5.931,13.744,13.312,28.471,13.312
	c14.725,0,22.346-7.38,28.47-13.311c5.267-5.101,8.746-8.471,16.512-8.471c2.821,0,5.237,0.457,7.385,1.4
	c4.348,1.907,9.417-0.072,11.322-4.42C209.139,460.277,207.16,455.208,202.814,453.302z"/>
<path d="M503.41,472.239c-7.768,0-11.248-3.37-16.515-8.471c-6.126-5.931-13.747-13.311-28.474-13.311
	c-14.726,0-22.347,7.38-28.472,13.311c-5.269,5.101-8.749,8.471-16.517,8.471c-7.765,0-11.244-3.37-16.512-8.47
	c-6.125-5.931-13.744-13.312-28.471-13.312c-14.725,0-22.346,7.38-28.471,13.311c-5.267,5.101-8.746,8.471-16.513,8.471
	s-11.245-3.37-16.513-8.471c-6.125-5.931-13.744-13.311-28.47-13.311c-14.725,0-22.346,7.38-28.47,13.312
	c-5.267,5.1-8.746,8.47-16.512,8.47c-3.89,0-6.919-0.84-9.818-2.721c-3.981-2.585-9.303-1.453-11.888,2.529
	c-2.584,3.981-1.452,9.303,2.529,11.887c5.695,3.697,11.967,5.493,19.177,5.493c14.725,0,22.346-7.38,28.47-13.312
	c5.267-5.1,8.746-8.47,16.512-8.47s11.244,3.37,16.512,8.47c6.125,5.931,13.746,13.312,28.471,13.312
	c14.725,0,22.346-7.38,28.471-13.311c5.267-5.101,8.746-8.471,16.513-8.471s11.245,3.37,16.513,8.471
	c6.125,5.931,13.744,13.311,28.47,13.311c14.728,0,22.349-7.38,28.474-13.311c5.267-5.101,8.747-8.471,16.515-8.471
	c7.769,0,11.249,3.37,16.517,8.471c6.125,5.93,13.746,13.311,28.472,13.311c4.747,0,8.594-3.848,8.594-8.594
	S508.157,472.239,503.41,472.239z"/>
<path d="M503.41,419.276c-7.768,0-11.248-3.37-16.515-8.471c-6.126-5.931-13.747-13.312-28.474-13.312
	c-14.726,0-22.347,7.38-28.473,13.311c-5.267,5.101-8.747,8.471-16.516,8.471c-7.765,0-11.244-3.37-16.512-8.471
	c-6.125-5.931-13.744-13.312-28.471-13.312c-14.725,0-22.346,7.382-28.471,13.312c-5.267,5.101-8.746,8.471-16.513,8.471
	s-11.245-3.37-16.513-8.471c-6.125-5.931-13.744-13.312-28.47-13.312c-14.725,0-22.346,7.382-28.47,13.312
	c-4.995,4.837-8.388,8.113-15.347,8.438c1.746-7.065,2.649-14.325,2.649-21.699c0-4.769-0.385-9.492-1.129-14.131
	c12.992-0.834,20.049-7.669,25.79-13.23c5.265-5.099,8.742-8.468,16.501-8.468c7.767,0,11.246,3.37,16.514,8.471
	c6.125,5.931,13.746,13.311,28.472,13.311c12.479,0,20.002-5.4,25.714-10.684c3.484-3.222,3.698-8.659,0.476-12.145
	c-3.223-3.484-8.66-3.698-12.145-0.474c-4.289,3.966-7.797,6.114-14.046,6.114c-7.767,0-11.246-3.37-16.514-8.471
	c-6.125-5.931-13.746-13.311-28.472-13.311c-14.72,0-22.338,7.38-28.461,13.31c-5.267,5.101-8.746,8.472-16.514,8.472
	c-0.644,0-1.256-0.031-1.855-0.078c-6.594-17.718-18.662-33.224-34.725-43.895V168.101c0-27.484-22.36-49.844-49.844-49.844
	c-13.312,0-25.826,5.183-35.242,14.598c-9.409,9.422-14.59,21.94-14.59,35.246v154.238c-15.217,10.109-26.848,24.558-33.637,41.115
	c-2.387,1.59-5.389,2.858-10.027,2.858c-7.767,0-11.246-3.37-16.514-8.471c-6.125-5.931-13.746-13.311-28.472-13.311
	c-4.747,0-8.594,3.848-8.594,8.594s3.847,8.594,8.594,8.594c7.767,0,11.246,3.37,16.514,8.471
	c6.125,5.931,13.746,13.311,28.472,13.311c1.562,0,3.032-0.093,4.431-0.25c-0.761,4.692-1.157,9.469-1.157,14.296
	c0,4.746,3.847,8.594,8.594,8.594s8.594-3.848,8.594-8.594c0-25.804,13.85-49.958,36.145-63.034
	c2.631-1.542,4.247-4.363,4.247-7.412V168.101c0-8.72,3.397-16.924,9.561-23.097c6.165-6.165,14.362-9.56,23.084-9.56
	c18.007,0,32.657,14.65,32.657,32.657v158.998c0,3.049,1.616,5.87,4.245,7.412c22.296,13.078,36.146,37.231,36.146,63.034
	c0,5.019-0.52,9.97-1.518,14.816c-0.525-0.5-1.06-1.015-1.617-1.556c-2.223-2.153-4.65-4.495-7.535-6.608
	c0.235-2.213,0.359-4.436,0.359-6.653c0-22.157-11.901-42.903-31.055-54.139l-9.342-5.487c-0.172-4.595-3.951-8.268-8.588-8.268
	c-4.747,0-8.594,3.848-8.594,8.594v4.597c0,3.048,1.613,5.867,4.242,7.41l13.583,7.977c13.92,8.165,22.566,23.23,22.566,39.315
	c0,0.057-0.005,0.113-0.005,0.171c-1.307-0.133-2.658-0.222-4.096-0.222c-14.725,0-22.346,7.382-28.47,13.312
	c-5.267,5.101-8.746,8.471-16.512,8.471c-7.767,0-11.245-3.37-16.513-8.471c-5.695-5.516-12.693-12.277-25.486-13.198
	c0-0.021-0.001-0.041-0.001-0.062c0-16.084,8.643-31.15,22.557-39.316l13.59-7.975c2.63-1.542,4.244-4.363,4.244-7.411V208.196
	c0-4.746-3.847-8.594-8.594-8.594c-4.747,0-8.594,3.848-8.594,8.594v129.725l-9.347,5.485
	c-19.148,11.241-31.044,31.985-31.044,54.139c0,0.91,0.022,1.818,0.061,2.726c-6.212,2.69-10.556,6.884-14.324,10.535
	c-5.267,5.101-8.746,8.471-16.512,8.471c-7.764,0-11.244-3.37-16.511-8.471c-6.123-5.931-13.743-13.312-28.469-13.312
	c-4.747,0-8.594,3.848-8.594,8.594s3.847,8.594,8.594,8.594c7.764,0,11.244,3.37,16.511,8.471
	c6.123,5.931,13.743,13.312,28.469,13.312s22.346-7.382,28.47-13.312c5.267-5.101,8.746-8.471,16.512-8.471
	s11.244,3.37,16.512,8.471c6.125,5.931,13.744,13.312,28.471,13.312c14.725,0,22.346-7.382,28.47-13.312
	c5.267-5.101,8.746-8.471,16.512-8.471c7.763,0,11.243,3.37,16.508,8.47c6.122,5.931,13.743,13.312,28.467,13.312
	c14.725,0,22.346-7.382,28.47-13.312c5.267-5.101,8.746-8.471,16.512-8.471s11.244,3.37,16.512,8.471
	c6.125,5.931,13.744,13.312,28.471,13.312c14.725,0,22.346-7.382,28.471-13.312c5.267-5.101,8.746-8.471,16.513-8.471
	s11.245,3.37,16.513,8.471c6.125,5.931,13.744,13.312,28.47,13.312c14.728,0,22.349-7.38,28.474-13.312
	c5.267-5.101,8.747-8.471,16.515-8.471c7.769,0,11.249,3.37,16.516,8.471c6.126,5.931,13.747,13.311,28.473,13.311
	c4.747,0,8.594-3.848,8.594-8.594S508.157,419.276,503.41,419.276z"/>
<path d="M220.916,189.291h36.092c4.747,0,8.594-3.848,8.594-8.594c0-4.746-3.847-8.594-8.594-8.594h-36.092
	c-4.747,0-8.594,3.848-8.594,8.594C212.322,185.443,216.169,189.291,220.916,189.291z"/>
<path d="M220.916,288.975h36.092c4.747,0,8.594-3.848,8.594-8.594s-3.847-8.594-8.594-8.594h-36.092
	c-4.747,0-8.594,3.848-8.594,8.594S216.169,288.975,220.916,288.975z"/>
<path d="M220.916,239.133h36.092c4.747,0,8.594-3.848,8.594-8.594c0-4.746-3.847-8.594-8.594-8.594h-36.092
	c-4.747,0-8.594,3.848-8.594,8.594C212.322,235.285,216.169,239.133,220.916,239.133z"/>
<path d="M223.783,94.763h19.947c0.886,3.612,2.309,7.015,4.192,10.11l-14.109,14.109c-3.356,3.356-3.356,8.797,0,12.153
	c1.679,1.679,3.879,2.517,6.078,2.517s4.399-0.839,6.078-2.517l14.109-14.108c3.096,1.884,6.498,3.307,10.11,4.193v19.947
	c0,4.746,3.847,8.594,8.594,8.594s8.594-3.848,8.594-8.594v-19.946c3.612-0.886,7.015-2.309,10.11-4.193l14.108,14.108
	c1.679,1.679,3.879,2.517,6.078,2.517s4.399-0.839,6.078-2.517c3.356-3.356,3.356-8.797,0-12.153l-14.109-14.109
	c1.884-3.096,3.307-6.498,4.193-10.11h19.947c4.747,0,8.594-3.848,8.594-8.594s-3.847-8.594-8.594-8.594H313.83
	c-0.886-3.612-2.309-7.015-4.193-10.11l14.109-14.109c3.356-3.356,3.356-8.797,0-12.153c-3.357-3.356-8.798-3.356-12.154,0
	l-14.109,14.107c-3.096-1.884-6.498-3.307-10.11-4.193V31.172c0-4.746-3.847-8.594-8.594-8.594s-8.594,3.848-8.594,8.594v19.947
	c-3.612,0.886-7.015,2.309-10.11,4.193l-14.109-14.108c-3.357-3.356-8.798-3.356-12.154,0c-3.356,3.356-3.356,8.797,0,12.153
	l14.109,14.109c-1.884,3.096-3.306,6.498-4.192,10.11h-19.947c-4.747,0-8.594,3.848-8.594,8.594
	C215.19,90.916,219.036,94.763,223.783,94.763z M278.78,67.265c10.425,0,18.905,8.48,18.905,18.905s-8.48,18.905-18.905,18.905
	c-10.424,0-18.904-8.48-18.904-18.905S268.356,67.265,278.78,67.265z"/>
<g>
</g>
<g>
</g>
<g>
</g>
<g>
</g>
<g>
</g>
<g>
</g>
<g>
</g>
<g>
</g>
<g>
</g>
<g>
</g>
<g>
</g>
<g>
</g>
<g>
</g>
<g>
</g>
<g>
</g>
</svg>
